HIERARCHY
ROOT Hips
{
	OFFSET -0.001795 -0.223333 0.028219
	CHANNELS 6 Xposition Yposition Zposition Zrotation Yrotation Xrotation 
	JOINT LeftUpLeg
	{
		OFFSET 0.069520 -0.091406 -0.006815
		CHANNELS 3 Zrotation Yrotation Xrotation
		JOINT LeftLeg
		{
			OFFSET 0.034277 -0.375199 -0.004496
			CHANNELS 3 Zrotation Yrotation Xrotation
			JOINT LeftFoot
			{
				OFFSET -0.013596 -0.397961 -0.043693
				CHANNELS 3 Zrotation Yrotation Xrotation
				JOINT LeftToe
				{
					OFFSET 0.026358 -0.055791 0.119288
					CHANNELS 3 Zrotation Yrotation Xrotation
					End Site
					{
						OFFSET 0.000000 0.000000 0.000000
					}
				}
			}
		}
	}
	JOINT RightUpLeg
	{
		OFFSET -0.067670 -0.090522 -0.004320
		CHANNELS 3 Zrotation Yrotation Xrotation
		JOINT RightLeg
		{
			OFFSET -0.038290 -0.382569 -0.008850
			CHANNELS 3 Zrotation Yrotation Xrotation
			JOINT RightFoot
			{
				OFFSET 0.015774 -0.398415 -0.042312
				CHANNELS 3 Zrotation Yrotation Xrotation
				JOINT RightToe
				{
					OFFSET -0.025372 -0.048144 0.123348
					CHANNELS 3 Zrotation Yrotation Xrotation
					End Site
					{
						OFFSET 0.000000 0.000000 0.000000
					}
				}
			}
		}
	}
	JOINT Spine
	{
		OFFSET -0.002533 0.108963 -0.026696
		CHANNELS 3 Zrotation Yrotation Xrotation
		JOINT Spine1
		{
			OFFSET 0.005487 0.135180 0.001092
			CHANNELS 3 Zrotation Yrotation Xrotation
			JOINT Spine2
			{
				OFFSET 0.001457 0.052922 0.025425
				CHANNELS 3 Zrotation Yrotation Xrotation
				JOINT Neck
				{
					OFFSET -0.002778 0.213870 -0.042857
					CHANNELS 3 Zrotation Yrotation Xrotation
					JOINT Head
					{
						OFFSET 0.005152 0.064970 0.051349
						CHANNELS 3 Zrotation Yrotation Xrotation
						End Site
						{
							OFFSET 0.000000 0.000000 0.000000
						}
					}
				}
				JOINT LeftShoulder
				{
					OFFSET 0.078845 0.121749 -0.034090
					CHANNELS 3 Zrotation Yrotation Xrotation
					JOINT LeftArm
					{
						OFFSET 0.090977 0.030469 -0.008868
						CHANNELS 3 Zrotation Yrotation Xrotation
						JOINT LeftForeArm
						{
							OFFSET 0.259612 -0.012772 -0.027456
							CHANNELS 3 Zrotation Yrotation Xrotation
							JOINT LeftHand
							{
								OFFSET 0.249234 0.008986 -0.001171
								CHANNELS 3 Zrotation Yrotation Xrotation
								End Site
								{
									OFFSET 0.000000 0.000000 0.000000
								}
							}
						}
					}
				}
				JOINT RightShoulder
				{
					OFFSET -0.081759 0.118833 -0.038615
					CHANNELS 3 Zrotation Yrotation Xrotation
					JOINT RightArm
					{
						OFFSET -0.096012 0.032551 -0.009143
						CHANNELS 3 Zrotation Yrotation Xrotation
						JOINT RightForeArm
						{
							OFFSET -0.253742 -0.013329 -0.021401
							CHANNELS 3 Zrotation Yrotation Xrotation
							JOINT RightHand
							{
								OFFSET -0.255298 0.007772 -0.005559
								CHANNELS 3 Zrotation Yrotation Xrotation
								End Site
								{
									OFFSET 0.000000 0.000000 0.000000
								}
							}
						}
					}
				}
			}
		}
	}
}
MOTION
Frames: 16
Frame Time: 0.050000
0.008962 0.944504 0.006845 -0.012524 -3.157418 12.714292 11.018479 -0.131317 -20.439936 -4.549253 0.614628 8.471726 -0.731820 3.460555 13.723258 0.000000 0.000000 0.000000 -4.862555 1.057196 -12.701239 -5.009297 -0.163935 -7.812180 -2.146433 -12.480131 26.672949 0.000000 0.000000 0.000000 1.893777 -0.490747 6.865671 -7.050930 3.273423 0.220138 -10.511033 19.749863 -4.377797 24.735979 -11.079778 -19.142181 0.000000 0.000000 0.000000 -4.994070 -37.395915 11.601911 -14.208786 -42.616889 1.299640 18.966820 -37.731165 -6.625851 0.000000 0.000000 0.000000 -5.851385 33.543119 12.807767 -8.142687 56.100105 -4.106437 -17.837575 2.961185 0.033510 0.000000 0.000000 0.000000 
0.008833 0.945063 0.008312 -0.113279 -2.477027 12.433290 11.093930 -0.160828 -20.282686 -4.440305 0.581011 8.624550 -1.071956 2.998733 13.713429 0.000000 0.000000 0.000000 -4.587429 1.006269 -11.909144 -5.194998 -0.190812 -8.231762 -2.414778 -12.757339 26.983127 0.000000 0.000000 0.000000 1.359616 -0.433394 6.894345 -7.105187 3.285574 0.086955 -10.840581 20.523897 -5.171962 25.202289 -11.647751 -18.313807 0.000000 0.000000 0.000000 -5.043460 -37.492487 11.417634 -13.693386 -42.519472 1.132759 19.710858 -37.542324 -6.997477 0.000000 0.000000 0.000000 -6.490271 34.298086 13.034573 -11.276964 54.420032 -5.157741 -15.201619 -0.083999 0.331332 0.000000 0.000000 0.000000 
0.008873 0.945650 0.009192 -0.495517 -1.716191 12.551255 11.596212 -0.130011 -20.638133 -4.511119 0.581305 8.839563 -1.410694 2.564285 13.776770 0.000000 0.000000 0.000000 -4.288454 0.987740 -11.548176 -4.908060 -0.234708 -8.699329 -2.717214 -13.089529 27.485347 0.000000 0.000000 0.000000 1.285460 -0.411842 6.545287 -7.557824 3.486079 0.120593 -10.599944 20.604514 -5.842094 25.735215 -12.238506 -17.690919 0.000000 0.000000 0.000000 -5.270296 -37.682925 11.418284 -12.746487 -42.229613 0.882917 20.589825 -37.296712 -7.296324 0.000000 0.000000 0.000000 -7.199106 35.178168 13.208128 -13.179627 52.993035 -5.705470 -13.556832 -1.339722 0.395181 0.000000 0.000000 0.000000 
0.009076 0.946053 0.009947 -0.706314 -1.191532 12.441305 11.731961 -0.140049 -20.742891 -4.332791 0.538538 9.109476 -1.650297 2.233774 13.745357 0.000000 0.000000 0.000000 -4.105805 0.957348 -11.075724 -4.830895 -0.184854 -8.075120 -2.366711 -12.148284 25.180099 0.000000 0.000000 0.000000 0.846777 -0.361888 6.471939 -7.719954 3.538886 -0.156630 -10.335755 20.856527 -6.259986 26.025302 -12.443729 -17.572316 0.000000 0.000000 0.000000 -5.038680 -37.690719 11.333418 -12.094325 -42.039586 0.658469 21.695224 -37.003204 -7.677932 0.000000 0.000000 0.000000 -6.824032 35.683036 13.667154 -13.653774 51.892502 -5.760578 -13.268733 -1.311665 0.381159 0.000000 0.000000 0.000000 
0.009525 0.946397 0.010635 -1.013025 -0.617898 12.251730 11.958747 -0.144934 -20.490268 -4.158006 0.491485 8.887837 -1.906302 1.857927 13.650536 0.000000 0.000000 0.000000 -3.953507 0.922417 -10.571452 -4.623755 -0.131778 -7.362801 -1.948286 -11.058377 23.036467 0.000000 0.000000 0.000000 0.652891 -0.330509 6.211624 -7.968357 3.644377 -0.216280 -9.876868 20.669197 -6.496544 25.745127 -12.548721 -16.910423 0.000000 0.000000 0.000000 -4.956047 -37.026063 11.050984 -11.767633 -42.196806 0.564717 22.498843 -36.719079 -7.933901 0.000000 0.000000 0.000000 -6.538004 35.807320 13.850587 -12.348112 51.007831 -5.164899 -13.537427 0.111586 0.268628 0.000000 0.000000 0.000000 
0.010065 0.946554 0.011337 -1.354130 -0.247613 11.913951 12.073019 -0.148121 -20.221623 -3.767286 0.411748 9.009314 -2.055970 1.587216 13.436236 0.000000 0.000000 0.000000 -3.609333 0.894557 -10.073281 -4.717598 -0.046310 -6.382843 -1.489601 -9.847654 20.744548 0.000000 0.000000 0.000000 0.282228 -0.276273 5.854292 -7.831735 3.595590 0.033004 -9.590127 20.772965 -6.912780 26.190590 -12.859295 -16.861786 0.000000 0.000000 0.000000 -4.652426 -36.338513 10.730343 -11.899265 -42.071706 0.594703 23.887387 -37.069170 -8.615633 0.000000 0.000000 0.000000 -5.192832 35.625427 14.392548 -10.493400 50.634337 -4.497404 -14.516474 2.424591 0.075754 0.000000 0.000000 0.000000 
0.010703 0.946403 0.011941 -1.878593 -0.139191 11.602541 12.399866 -0.107351 -19.893701 -3.424509 0.345679 9.104535 -2.052814 1.482101 13.094254 0.000000 0.000000 0.000000 -3.222749 0.880929 -9.734889 -4.575402 0.017144 -5.525104 -1.048344 -8.746556 19.002655 0.000000 0.000000 0.000000 0.307773 -0.265787 5.545265 -8.020167 3.691732 0.149815 -9.398005 20.771419 -7.290940 26.823336 -13.314842 -16.838707 0.000000 0.000000 0.000000 -4.702882 -35.672109 10.460480 -12.253710 -41.531851 0.746017 24.399890 -38.031379 -9.117121 0.000000 0.000000 0.000000 -3.668026 35.304656 14.923019 -8.296415 50.243087 -3.747023 -15.537461 5.495868 -0.225094 0.000000 0.000000 0.000000 
0.011334 0.946212 0.012430 -2.331581 -0.435993 11.244072 12.365755 -0.096511 -19.241028 -2.636907 0.204954 8.909633 -1.861526 1.620206 12.699660 0.000000 0.000000 0.000000 -2.786338 0.857674 -9.246722 -4.441390 0.029646 -5.268172 -0.892195 -8.289071 17.900343 0.000000 0.000000 0.000000 0.091988 -0.220810 5.005258 -8.050857 3.722208 0.275732 -8.993641 20.978724 -7.311034 27.006477 -13.296503 -17.174260 0.000000 0.000000 0.000000 -4.159072 -34.684935 10.085014 -12.861559 -41.516373 0.888543 25.336112 -38.223949 -9.616350 0.000000 0.000000 0.000000 -2.033822 35.222201 15.580191 -6.411969 50.113255 -3.175052 -16.172068 8.411725 -0.545430 0.000000 0.000000 0.000000 
0.011973 0.946005 0.012711 -2.687491 -0.972314 10.834592 12.451134 -0.056724 -18.557045 -2.263512 0.144985 8.838913 -1.582700 1.906166 12.379173 0.000000 0.000000 0.000000 -2.436186 0.840681 -8.905417 -4.435536 0.017880 -5.391657 -0.686579 -8.112475 18.162942 0.000000 0.000000 0.000000 -0.012101 -0.208947 4.971038 -8.416325 3.906929 0.319455 -8.495953 21.001505 -7.516304 27.130475 -13.581424 -16.804750 0.000000 0.000000 0.000000 -4.294511 -34.124651 9.926283 -12.830755 -40.625639 0.927615 24.852767 -38.530241 -9.478563 0.000000 0.000000 0.000000 -0.355853 35.155940 16.237712 -4.639129 49.948265 -2.670654 -16.895081 11.070323 -0.866765 0.000000 0.000000 0.000000 
0.012491 0.945710 0.012880 -2.938182 -1.846448 10.602704 12.265736 -0.039615 -17.827204 -1.632397 0.044502 8.513940 -1.139401 2.442743 12.093251 0.000000 0.000000 0.000000 -2.159471 0.826210 -8.620651 -4.199974 -0.014220 -5.602163 -0.776869 -8.327518 17.776018 0.000000 0.000000 0.000000 -0.006460 -0.189894 4.534091 -8.690924 4.067037 0.534166 -8.093217 21.210585 -7.770153 26.991753 -13.522197 -16.730066 0.000000 0.000000 0.000000 -3.962639 -33.353753 9.682209 -13.462841 -40.403435 1.112193 23.508575 -38.148606 -8.854332 0.000000 0.000000 0.000000 0.731546 35.075251 16.634594 -3.087151 50.491558 -2.200679 -17.289101 13.477711 -1.167451 0.000000 0.000000 0.000000 
0.012805 0.945624 0.012978 -3.162447 -2.837944 10.461221 12.238442 -0.002285 -17.087234 -1.313937 0.005721 8.053554 -0.662206 3.076301 11.959846 0.000000 0.000000 0.000000 -1.907111 0.816353 -8.416262 -3.982547 -0.059319 -6.020989 -0.788781 -8.528411 17.785951 0.000000 0.000000 0.000000 -0.090140 -0.169799 4.249670 -9.181909 4.317478 0.556794 -7.566709 21.460784 -7.997700 27.346359 -13.908033 -16.483429 0.000000 0.000000 0.000000 -3.635225 -32.924132 9.573299 -13.774411 -39.589801 1.204623 21.679121 -37.638677 -8.015354 0.000000 0.000000 0.000000 1.133656 34.760147 16.594978 -1.774814 51.323111 -1.738391 -17.877603 15.555590 -1.453411 0.000000 0.000000 0.000000 
0.012883 0.945432 0.013150 -3.478666 -3.478554 10.284819 12.399435 0.046534 -16.646799 -1.086781 -0.027291 8.035069 -0.337253 3.491231 11.789403 0.000000 0.000000 0.000000 -1.365026 0.807792 -8.212418 -4.119799 -0.072532 -6.258551 -0.837616 -8.745252 17.847288 0.000000 0.000000 0.000000 0.143617 -0.174422 3.903402 -9.236306 4.351663 0.497559 -7.336320 21.728441 -8.105022 27.322713 -13.896143 -16.482538 0.000000 0.000000 0.000000 -3.409655 -32.286344 9.355093 -14.687880 -39.126774 1.456163 19.353269 -37.374671 -7.110974 0.000000 0.000000 0.000000 1.409083 34.510782 16.563740 -0.618125 51.942767 -1.288406 -18.204000 17.777890 -1.744016 0.000000 0.000000 0.000000 
0.012797 0.944932 0.013668 -3.501206 -4.262511 10.138911 12.362347 0.069601 -16.053379 -1.076050 -0.015541 7.760345 0.047279 3.996743 11.630516 0.000000 0.000000 0.000000 -1.284592 0.793780 -8.046257 -4.137301 -0.091878 -6.506921 -0.709773 -8.647025 17.760870 0.000000 0.000000 0.000000 0.247352 -0.161609 3.434977 -9.490481 4.467626 0.257110 -6.853624 21.930460 -7.908389 26.580538 -13.496215 -16.279407 0.000000 0.000000 0.000000 -3.609993 -31.651789 9.160210 -15.767839 -38.071663 1.750427 17.314721 -38.235438 -6.536633 0.000000 0.000000 0.000000 1.133359 34.446958 16.333009 0.731341 53.201462 -0.696623 -18.868613 19.257276 -2.007016 0.000000 0.000000 0.000000 
0.012824 0.944505 0.014705 -3.518161 -4.425554 9.908186 12.296657 0.063604 -15.628190 -0.972143 -0.031552 7.669616 0.143987 4.082337 11.415437 0.000000 0.000000 0.000000 -1.138576 0.753292 -7.605249 -4.381516 -0.101016 -6.765751 -0.618726 -8.494891 17.654590 0.000000 0.000000 0.000000 0.471462 -0.160818 3.050026 -9.424549 4.407834 -0.160648 -6.618995 22.221471 -7.486228 26.146268 -13.239301 -16.248703 0.000000 0.000000 0.000000 -2.997513 -30.981554 8.914084 -17.823099 -37.539448 2.211040 15.916192 -39.102611 -6.321794 0.000000 0.000000 0.000000 0.380051 33.684161 15.609413 3.124571 54.131378 0.486759 -19.733319 22.028636 -2.455356 0.000000 0.000000 0.000000 
0.012966 0.943948 0.016350 -3.361508 -4.491137 9.617734 12.072667 0.030813 -15.079645 -0.931970 -0.035314 7.456048 0.192386 4.090171 11.165105 0.000000 0.000000 0.000000 -1.238602 0.718304 -7.251313 -4.541307 -0.087704 -6.674292 -0.640671 -8.455938 17.353487 0.000000 0.000000 0.000000 0.785838 -0.163514 2.658812 -9.581696 4.454988 -0.540478 -6.283890 22.393222 -6.787937 25.338877 -12.818828 -16.041080 0.000000 0.000000 0.000000 -3.700264 -29.945910 8.508840 -19.598157 -36.578334 2.628117 14.887221 -41.781106 -6.527417 0.000000 0.000000 0.000000 0.061979 32.953341 15.063487 6.078710 54.591948 1.883090 -21.742943 25.662830 -3.264301 0.000000 0.000000 0.000000 
0.013342 0.943725 0.018363 -3.417149 -4.262023 9.556323 12.398401 0.051620 -14.836062 -1.423428 0.053534 7.268754 0.103019 3.918205 11.001486 0.000000 0.000000 0.000000 -1.038829 0.697409 -7.018238 -4.812645 -0.075404 -6.663690 -0.755460 -8.596760 17.301486 0.000000 0.000000 0.000000 1.277514 -0.164194 2.054092 -9.829307 4.577120 -0.497613 -6.091320 22.310211 -6.854174 24.609515 -12.495721 -15.612031 0.000000 0.000000 0.000000 -3.687622 -28.925666 8.127551 -22.695733 -35.660597 3.320049 14.338252 -44.616605 -7.046375 0.000000 0.000000 0.000000 0.048409 31.935980 14.561560 10.200113 54.726831 3.803537 -23.998160 30.769063 -4.447532 0.000000 0.000000 0.000000 
